<svg width="250" height="48" viewBox="0 0 250 48" fill="none" xmlns="http://www.w3.org/2000/svg">
<path d="M130.356 13.5958C131.856 12.7485 134.157 12.2893 134.191 9.70264C134.229 6.83237 130.757 7.66686 131.428 10.0845C131.921 11.8601 131.21 12.4008 130.237 13.4449C130.204 13.48 130.202 13.5337 130.231 13.5713C130.262 13.6094 130.315 13.6192 130.356 13.5958Z" fill="#DBC0AB"/>
<path d="M119.645 13.5956C119.688 13.6193 119.74 13.6086 119.77 13.5711C119.843 13.4781 119.727 13.4043 119.529 13.1955C117.188 10.7294 119.47 9.97322 118.333 8.47667C117.572 7.47628 115.783 7.65652 115.81 9.70244C115.844 12.2908 118.151 12.7512 119.645 13.5956Z" fill="#DBC0AB"/>
<path d="M134.738 10.6906C136.559 9.66373 139.155 9.18489 139.194 6.17495C139.238 2.85953 135.236 3.82606 136.01 6.61518C136.586 8.68771 135.757 9.32 134.62 10.5393C134.587 10.5744 134.585 10.6281 134.614 10.6658C134.643 10.703 134.696 10.714 134.738 10.6906Z" fill="#DBC0AB"/>
<path d="M115.263 10.6907C115.305 10.7142 115.358 10.7032 115.387 10.666C115.46 10.5729 115.349 10.5036 115.108 10.2497C112.365 7.36172 115.037 6.50016 113.714 4.75916C112.838 3.60672 110.776 3.80641 110.807 6.17513C110.846 9.18459 113.441 9.66334 115.263 10.6907Z" fill="#DBC0AB"/>
<path d="M233.745 25.6766C227.77 25.7013 220.178 25.325 212.099 24.6195L212.067 24.5974L212.054 24.6156C211.474 24.5649 210.891 24.5126 210.306 24.4585C215.174 24.1434 228.766 23.6623 229.041 19.0242C229.203 16.2827 226.291 16.2483 225.535 17.668C224.968 18.7327 225.742 20.2132 227.172 19.6198C228.384 19.1173 227.804 17.8119 227.092 17.7573C226.622 17.7225 226.023 18.1451 226.257 18.2668C226.304 18.2908 226.362 18.2707 226.388 18.2259C226.429 18.156 226.78 17.9131 227.106 17.9542C227.586 18.0151 228.116 19.0177 227.098 19.4403C225.811 19.9744 225.241 18.6344 225.707 17.7597C226.369 16.5174 228.997 16.4859 228.847 19.013C228.581 23.4994 214.818 23.9721 210.112 24.2767C208.878 24.3566 209.36 24.3742 207.588 24.1965C208.404 22.4419 208.09 20.3013 206.735 19.0222C203.161 15.6476 198.007 21.133 195.616 22.7823C192.893 22.4058 190.458 22.0242 188.439 21.659C187.273 18.0214 190.822 16.1954 192.827 17.6221C194.249 18.6331 194.399 21.1551 192.002 21.3372C190.07 21.4838 190.02 19.4313 190.831 18.942C191.329 18.6414 192.062 18.7648 192.158 18.8424C192.2 18.8762 192.261 18.8693 192.294 18.8276C192.492 18.5836 191.375 18.3866 190.731 18.7755C189.758 19.363 189.857 21.6936 192.017 21.5313C194.569 21.3375 194.528 18.5934 192.94 17.4638C190.816 15.9529 187.101 17.8395 188.223 21.6197C183.227 20.7055 184.168 20.6768 178.052 18.7066C178.799 12.9887 170.744 6.16141 165.373 12.9755L165.508 13.1133C172.241 8.00885 176.187 13.6945 176.682 18.2712C168.959 15.8537 161.817 14.2219 155.301 13.3842C155.145 11.7338 154.354 10.3108 152.94 9.14427C149.856 6.59875 144.589 8.68896 144.609 12.7307C138.996 12.8149 133.148 13.6668 128.1 16.0067C127.596 14.3682 126.487 13.1029 125.001 12.2317C123.543 13.0858 122.413 14.3418 121.901 16.0066C116.852 13.6664 111.002 12.8149 105.392 12.7307C105.402 10.6706 103.863 8.64979 101.386 8.15066C97.8034 7.42924 94.9894 10.3216 94.7002 13.3842C88.1858 14.2218 81.044 15.8535 73.3217 18.2708C73.8196 13.6627 77.7799 8.02216 84.4953 13.1132L84.6304 12.9754C79.2989 6.21091 71.191 12.8825 71.9512 18.7061C65.8171 20.6824 66.7805 20.7045 61.7798 21.6196C63.3683 16.2656 55.7701 15.3131 55.9609 19.8429C56.0378 21.6747 59.4343 22.2508 59.7931 20.4191C60.206 18.3122 58.0532 18.4245 57.7224 18.6905C57.6224 18.771 57.744 18.9228 57.8445 18.8421C57.9941 18.7213 59.9877 18.4156 59.6023 20.3816C59.2913 21.9672 56.2232 21.4531 56.1552 19.8346C55.9764 15.5569 63.2033 16.5415 61.5634 21.6588C59.5445 22.024 57.1093 22.4056 54.3868 22.7821C53.1046 21.8976 51.925 20.8661 51.157 20.25C44.4423 14.8667 40.6078 20.3096 42.414 24.1963C40.1132 24.4269 21.4533 24.0355 21.1546 19.0128C20.9542 15.6383 25.5206 16.8782 24.2436 19.1551C23.7968 19.9522 22.0984 19.4389 22.3444 18.5681C22.6483 17.4917 23.5552 18.1257 23.6136 18.2257C23.6782 18.3365 23.8383 18.2497 23.7898 18.1433C23.6833 17.9101 22.5194 17.2337 22.1577 18.515C21.8452 19.6217 23.8608 20.2356 24.4136 19.2498C25.8659 16.6624 20.7408 15.3176 20.9608 19.0239C21.2367 23.6773 34.8832 24.1468 39.6958 24.4582C39.1119 24.5122 38.5305 24.5644 37.9512 24.615L37.9388 24.5973L37.9081 24.6188C29.8259 25.3245 22.2327 25.701 16.2569 25.6763C16.2033 25.6761 16.1595 25.7195 16.1593 25.7732C16.1583 26.0525 26.6508 25.7872 37.589 24.8423L35.1261 26.5647C34.846 26.2308 33.7357 26.2379 33.6426 26.2807C30.2217 27.8731 26.3553 29.0684 22.8598 27.7543C22.5301 27.6298 22.7322 30.6724 27.7291 29.7238C26.6614 30.4101 25.1423 30.8145 23.8769 31.449C23.2574 31.7596 21.1267 34.1842 21.2161 34.3452C21.2543 34.4148 21.203 34.3841 22.1886 34.3796C24.7021 34.3676 24.7041 34.4082 26.8355 32.8184C27.5304 32.3001 28.2452 31.7669 28.9948 31.4224C25.8483 34.6706 27.0657 35.745 27.5746 36.6326C27.62 36.7095 27.7369 36.6908 27.7544 36.6028C28.3246 33.7388 30.7138 31.6948 33.0241 29.718C33.1162 29.6392 35.0793 27.9636 35.1107 27.8462C35.2453 27.3341 35.3059 26.9817 35.2217 26.7351L37.9765 24.8085C39.4722 24.6776 40.9839 24.5357 42.5057 24.3828C44.2999 27.8365 51.2281 27.9687 55.1281 27.7023C50.8738 28.7265 47.1666 29.8722 45.3019 31.7415C43.5031 31.4748 42.17 32.4087 42.3088 34.3527C42.1577 34.3823 41.9634 34.3938 41.8043 34.3831C42.1704 33.4279 41.393 32.4136 40.4468 32.4136C39.1875 32.4136 39.0954 33.95 37.0773 33.95C36.4197 33.95 35.9763 33.7966 35.1518 33.7667C36.1229 35.9196 37.581 35.513 39.2427 35.4438C40.0118 35.7192 39.5298 36.5769 38.9853 36.5822C38.1652 36.3508 37.4519 36.5686 36.9173 37.1551C35.5225 38.6856 36.538 39.7651 35.9691 41.5071C35.8752 41.7933 35.8709 41.8272 35.8077 42.1073C36.7672 41.634 37.3352 41.6241 38.7363 41.5866C42.2991 41.3122 40.5526 37.7945 41.7757 37.7945C42.3641 37.7945 42.1757 38.6025 42.1189 38.9506C41.8856 40.3729 41.9721 41.246 43.9384 42.441C44.034 41.0721 43.7737 39.0931 44.3691 38.7707C45.5486 38.0269 45.8984 35.5441 43.3257 35.6363C43.3349 35.4914 43.3498 35.3107 43.4104 35.1648C45.1393 35.3444 45.9398 33.5089 45.4492 31.8692C49.2817 28.0449 61.2335 27.2452 68.9065 24.3128C70.4292 23.7309 71.902 23.1811 73.3278 22.6613C74.1949 24.0871 75.372 25.2101 76.7618 26.0429C75.3516 27.2276 74.1976 28.3947 73.2801 29.5575C72.9588 29.2798 72.3645 29.4857 71.7488 29.7055C71.4347 29.8189 67.2553 34.7996 62.0268 34.6882C61.6779 34.6594 62.4174 36.0294 64.0353 36.0294C64.9315 36.0294 66.0193 35.6615 67.2738 34.9344C65.4204 37.3132 63.9884 36.6677 62.63 41.3518C62.6197 41.3876 62.6308 41.4265 62.6587 41.4514C62.7183 41.5045 65.5371 40.5398 65.9944 40.0709C67.114 38.9229 67.8874 37.2223 69.0305 36.1177C67.1376 40.2233 68.6404 40.835 69.4155 41.5043C69.483 41.5627 69.5882 41.506 69.5755 41.417C68.8475 36.2896 74.4673 31.5349 73.4062 29.7111C74.3313 28.5327 75.5021 27.3493 76.939 26.147C80.5033 28.1921 86.6089 28.9409 95.0226 24.8127C92.4039 28.1498 91.1486 32.393 91.3977 32.4582C91.4484 32.4718 91.5024 32.4417 91.5164 32.3887C92.3161 29.3273 93.6633 26.7528 95.385 24.6325C95.3981 24.6259 95.4529 24.5987 95.531 24.5593C95.5906 24.4646 95.6516 24.3774 95.7662 24.2487L95.8809 24.1789C95.8925 24.1433 95.8969 24.1293 95.9076 24.099C96.485 23.5189 97.6173 22.7261 99.1805 21.8944C102.871 23.9424 108.505 23.345 109.587 22.9761C112.014 22.1577 115.09 21.0135 118.936 20.9949V20.9951C119.069 21.0005 119.201 21.0079 119.332 21.0166C117.699 21.1429 113.8 22.4448 112.519 25.416C111.334 26.8784 109.641 28.1303 108.41 28.4632C107.332 27.1073 105.749 26.817 104.491 28.3153C104.359 28.2292 104.214 28.1048 104.107 27.9859C105.437 27.3691 105.166 25.0048 103.13 25.2341C101.147 25.1745 100.683 23.8742 99.7611 22.9123C98.9837 25.0643 100.146 25.7297 101.531 26.9645C101.892 27.698 100.947 27.9765 100.553 27.6023C99.4794 25.7524 97.1991 26.7999 96.5607 27.5934C95.5523 28.8976 95.2303 28.8321 94.4259 29.3568C97.1979 30.2479 97.4494 33.5665 100.92 30.491C101.33 30.1854 101.684 30.2854 101.795 30.5315C101.976 30.9327 101.509 31.2201 101.154 31.4839C99.9907 32.3475 99.4536 33.0356 100.031 35.2566C101.007 34.384 102.112 32.9081 102.792 32.9081C102.806 32.9081 103.054 32.9569 103.238 32.9569C104.597 32.9569 106.061 31.5134 104.328 29.9449C104.435 29.8473 104.572 29.7279 104.717 29.6653C105.844 31.0111 107.727 30.2299 108.518 28.635C109.676 28.3024 111.154 27.2539 112.321 25.9489C111.312 29.1614 113.2 33.0113 116.556 33.0113C118.353 33.0113 120.102 31.9032 120.616 30.125C121.342 27.6143 119.11 24.6577 116.258 26.5706C113.844 28.1897 115.701 30.7357 117.196 30.5458C118.188 30.4198 119.141 29.324 118.804 29.2474C118.752 29.2355 118.7 29.2684 118.688 29.3209C118.649 29.4937 117.982 30.2498 117.172 30.3527C115.86 30.5197 114.139 28.2255 116.366 26.732C119.09 24.9057 121.096 27.7653 120.429 30.0709C119.756 32.4005 116.877 33.4605 114.823 32.4144C112.504 31.2331 111.637 27.9896 112.686 25.5191C112.715 25.4829 112.738 25.4629 112.731 25.4148C113.837 22.9625 116.392 21.9953 118.347 21.359C119.489 21.0936 120.781 21.1026 122.242 21.5078C122.981 23.4851 123.771 24.2338 124.999 25.8373C126.23 24.2303 127.016 23.4879 127.756 21.5079C132.221 20.2697 136.192 23.0309 137.267 25.4142C137.26 25.4628 137.283 25.4832 137.313 25.5202C139.002 29.497 135.762 34.2053 131.739 32.4611C127.426 30.5905 129.851 24.1963 133.632 26.7321C135.863 28.2276 134.124 30.518 132.827 30.3528C132.017 30.2499 131.349 29.4938 131.311 29.321C131.299 29.2685 131.247 29.2355 131.194 29.2475C130.856 29.3245 131.812 30.4201 132.802 30.5459C134.3 30.7361 136.153 28.1886 133.741 26.5706C130.888 24.6575 128.657 27.6148 129.382 30.1251C129.897 31.9033 131.645 33.0114 133.443 33.0114C136.801 33.0114 138.684 29.1557 137.678 25.9498C138.845 27.2546 140.323 28.3027 141.48 28.6352C142.265 30.2162 144.149 31.0179 145.281 29.6654C145.426 29.7281 145.563 29.8474 145.67 29.9451C143.765 31.6696 145.728 33.2127 147.103 32.9219C147.757 32.7409 148.949 34.3457 149.967 35.2569C150.727 32.3341 149.422 32.0387 148.325 31.077C148.011 30.716 148.203 30.3014 148.586 30.3014C149.477 30.3014 150.651 33.0623 153.107 31.0219C154.147 30.0669 154.562 29.6817 155.572 29.3571C154.764 28.8298 154.445 28.8968 153.438 27.5937C152.812 26.8162 150.526 25.7404 149.445 27.6026C149.053 27.9754 148.106 27.7003 148.468 26.9648C149.833 25.7478 151.019 25.0785 150.237 22.9126C149.086 24.113 148.875 25.2193 146.604 25.2193C144.803 25.2193 144.627 27.3999 145.891 27.9862C145.784 28.1052 145.639 28.2296 145.507 28.3156C144.245 26.8118 142.659 27.116 141.588 28.4636C140.358 28.1307 138.665 26.8794 137.48 25.4175C136.422 22.9622 133.184 21.2114 130.666 21.017C130.797 21.0082 130.929 21.0009 131.062 20.9955V20.9953C137.523 21.0266 138.457 23.3513 144.088 23.3513C146.346 23.3513 148.853 22.9853 150.818 21.8944C152.382 22.7265 153.515 23.5194 154.092 24.0995C154.101 24.1247 154.11 24.1539 154.119 24.1793L154.233 24.2492C154.349 24.3786 154.409 24.4647 154.469 24.5598C154.545 24.5984 154.606 24.6289 154.613 24.6323C156.335 26.7528 157.683 29.3275 158.482 32.3892C158.496 32.442 158.55 32.4722 158.601 32.4587C158.826 32.3998 157.682 28.2613 154.975 24.8125C163.386 28.9394 169.492 28.1945 173.06 26.1478C174.497 27.35 175.667 28.5332 176.592 29.7114C176.458 29.9419 176.415 30.2956 176.381 30.7185C176.371 30.8394 177.676 33.0834 177.73 33.1765C179.256 35.8066 180.833 38.5262 180.423 41.4171C180.41 41.505 180.514 41.5635 180.583 41.5044C181.358 40.8351 182.861 40.2236 180.968 36.1178C181.561 36.691 182.059 37.4307 182.543 38.1497C184.03 40.3596 184.057 40.3235 186.411 41.1618C187.021 41.3791 187.439 41.5972 187.368 41.3518C186.011 36.6707 184.573 37.3064 182.725 34.9344C187.17 37.5109 188.318 34.6597 187.971 34.6883C182.754 34.7995 178.55 29.814 178.249 29.7056C177.459 29.4233 176.999 29.3149 176.718 29.5575C175.801 28.395 174.647 27.2279 173.237 26.0434C174.621 25.2142 175.801 24.0933 176.672 22.6618C182.914 24.9375 182.455 25.0882 191.261 27.0711C196.893 28.3389 202.213 29.5382 204.55 31.8696C204.06 33.5066 204.858 35.3448 206.588 35.165C206.649 35.3109 206.664 35.4916 206.673 35.6365C204.09 35.5439 204.457 38.0313 205.63 38.7709C206.225 39.0931 205.964 41.0622 206.06 42.4412L206.197 42.3583C208.642 40.8656 207.895 39.5842 207.791 38.2975C207.826 37.6445 208.606 37.5757 208.74 38.4015C209.085 43.0149 211.698 40.8771 214.008 42.0173L214.191 42.1074C214.128 41.8288 214.125 41.798 214.03 41.5072C213.445 39.7168 214.498 38.7091 213.081 37.1552C212.547 36.5692 211.835 36.3505 211.013 36.5823C210.469 36.577 209.987 35.7193 210.756 35.4439C212.42 35.5133 213.876 35.9202 214.847 33.7668C214.023 33.7966 213.579 33.9501 212.922 33.9501C210.905 33.9501 210.809 32.4137 209.552 32.4137C208.609 32.4137 207.827 33.4245 208.195 34.3832C208.036 34.3939 207.841 34.3824 207.69 34.3528C207.832 32.3659 206.439 31.4833 204.697 31.7416C202.833 29.8722 199.125 28.7266 194.871 27.7024C198.755 27.9677 205.696 27.8418 207.493 24.3829C209.016 24.536 210.53 24.6781 212.027 24.8091L214.778 26.7327C214.089 28.7198 221.223 31.4718 222.244 36.6027C222.262 36.6909 222.379 36.7094 222.424 36.6325C222.933 35.7454 224.151 34.6707 221.004 31.4223C221.753 31.7667 222.468 32.3 223.163 32.8183C225.299 34.4113 225.311 34.3676 227.81 34.3795C228.796 34.384 228.744 34.4147 228.783 34.3451C228.873 34.182 226.739 31.7583 226.122 31.4489C224.856 30.8144 223.337 30.4102 222.269 29.7237C227.234 30.6662 227.494 27.6203 227.139 27.7542C223.646 29.0674 219.782 27.8754 216.356 26.2806C216.263 26.2378 215.155 26.2312 214.874 26.5626L212.415 24.8426C223.497 25.7998 233.841 26.0436 233.84 25.7731C233.84 25.7203 233.798 25.676 233.742 25.676L233.745 25.6766ZM206.601 19.1639C207.912 20.4009 208.2 22.4842 207.382 24.1761C203.615 23.7962 199.665 23.338 195.898 22.8213C198.083 21.2837 203.181 15.9347 206.601 19.1639ZM195.375 22.9451C193.903 23.9283 192.322 24.6753 191.078 24.361C189.865 24.0547 188.954 23.0551 188.511 21.8689C190.459 22.2195 192.785 22.5845 195.375 22.9451ZM172.648 25.5572C169.19 22.7782 164.321 19.8938 157.795 16.7392C162.826 17.993 168.767 19.8042 175.913 22.3855C175.209 23.6851 174.094 24.7578 172.648 25.5572H172.648ZM172.463 25.6574C168.173 27.9172 160.649 27.8655 154.42 24.1328C154.357 24.0595 154.293 23.9872 154.229 23.9147C153.897 23.1312 153.01 22.2131 151.74 21.2969C153.245 20.1549 154.54 17.8559 155.032 16.0855C159.098 16.9945 168.408 22.4132 172.463 25.6577L172.463 25.6574ZM125.001 19.597C123.995 18.9041 122.925 18.3231 121.794 17.8538C121.812 17.323 121.886 16.7945 122.025 16.2788C123.084 16.7806 124.078 17.3363 125.001 17.9454C125.925 17.3364 126.919 16.7807 127.977 16.279C128.117 16.7947 128.19 17.3231 128.208 17.8539C127.078 18.3231 126.007 18.904 125.001 19.597ZM95.7748 23.9131C95.7099 23.9863 95.6451 24.0595 95.5813 24.1336C89.3544 27.8644 81.8321 27.9184 77.5405 25.6572C81.274 22.6701 90.6952 17.0413 94.97 16.0859C95.4622 17.8543 96.7564 20.1551 98.2627 21.2977C96.9944 22.2131 96.1075 23.1304 95.7752 23.9135L95.7748 23.9131ZM77.3543 25.557C75.9088 24.7575 74.7934 23.6848 74.0901 22.3852C81.2354 19.804 87.1759 17.9928 92.2081 16.739C85.6821 19.8937 80.8131 22.7779 77.3543 25.557ZM125.001 20.4789C126.027 19.8298 127.093 19.3247 128.171 18.937C128.089 19.7663 127.889 20.5831 127.611 21.3469C126.693 21.6084 125.819 21.9578 125.001 22.3913C124.183 21.9578 123.309 21.6084 122.39 21.3469C122.113 20.583 121.912 19.766 121.83 18.9365C122.909 19.3245 123.975 19.8296 125.001 20.4789ZM176.702 18.4809C176.811 19.7791 176.636 20.9555 176.002 22.2105C168.038 19.3301 161.126 17.2409 155.083 15.8883C155.296 15.0509 155.362 14.2933 155.318 13.5822C161.832 14.4226 168.976 16.0584 176.702 18.4809ZM145.083 14.2293C144.94 13.8348 144.835 13.3948 144.811 12.9223C146.866 12.8981 149.004 12.9751 151.222 13.1527C151.419 13.8509 151.254 14.4835 150.793 15.0252C148.757 14.6651 146.877 14.4065 145.083 14.2293ZM150.628 15.2031C149.352 16.4591 146.243 17.0571 145.164 14.4401C146.836 14.6086 148.646 14.8554 150.628 15.2031ZM151.428 13.1695C152.636 13.2692 153.867 13.3986 155.122 13.5577C155.178 14.2902 155.106 15.0572 154.905 15.8483C153.567 15.5512 152.272 15.2905 151.017 15.0654C151.444 14.51 151.6 13.8478 151.428 13.1695ZM152.817 9.29445C154.172 10.412 154.934 11.8036 155.105 13.3598C153.836 13.1995 152.592 13.0696 151.372 12.9699C150.233 9.27872 146.63 11.9682 147.118 12.1881C147.167 12.2101 147.225 12.1884 147.247 12.1394C147.339 11.9329 148.364 11.1582 149.397 11.2364C150.22 11.2991 150.813 11.8762 151.162 12.9528C148.963 12.7789 146.843 12.7037 144.805 12.7279C144.788 8.84055 149.859 6.85399 152.817 9.29445ZM144.615 12.9253C144.639 13.3864 144.735 13.8179 144.869 14.2082C140.598 13.8006 137.243 13.9041 134.245 14.122C137.642 13.3165 141.124 12.9776 144.616 12.9253H144.615ZM133.861 14.2158L133.87 14.345C136.973 14.1076 140.455 13.9806 144.946 14.4185C146.095 17.3576 149.575 16.6537 150.866 15.2453C152.124 15.4695 153.45 15.7343 154.852 16.0453C154.368 17.772 153.072 20.0628 151.574 21.179C145.204 16.6984 135.512 14.9185 128.398 17.7756C128.375 17.2434 128.298 16.7134 128.156 16.1961C129.888 15.3905 131.795 14.7286 133.861 14.2158ZM125.001 12.4548C126.395 13.3018 127.444 14.5118 127.923 16.0899C126.886 16.5798 125.911 17.1208 125.001 17.7128C124.092 17.1208 123.116 16.5798 122.079 16.0899C122.557 14.5144 123.606 13.3024 125.001 12.4548ZM121.605 17.7754C114.307 14.8443 104.555 16.8699 98.4283 21.1793C96.928 20.0617 95.632 17.7672 95.1497 16.0452C96.5521 15.7342 97.878 15.4694 99.1356 15.2452C100.41 16.6363 103.895 17.3881 105.055 14.4184C109.547 13.9805 113.029 14.1075 116.131 14.3449L116.141 14.2156C118.207 14.7285 120.113 15.3902 121.846 16.1957C121.704 16.7132 121.627 17.2431 121.604 17.7754H121.605ZM94.8802 13.5578C96.135 13.3987 97.3662 13.2693 98.5737 13.1696C98.402 13.8479 98.5575 14.5101 98.9848 15.0655C97.7302 15.2906 96.435 15.5513 95.0969 15.8484C94.8955 15.0572 94.8237 14.2902 94.8802 13.5578ZM99.2083 15.0252C98.7416 14.4763 98.585 13.8412 98.7792 13.1527C100.998 12.9752 103.136 12.8981 105.191 12.9223C105.166 13.3948 105.062 13.8349 104.919 14.2293C103.014 14.4174 101.126 14.6861 99.2083 15.0252ZM104.837 14.4401C103.774 17.0206 100.677 16.4864 99.374 15.2031C101.355 14.8554 103.166 14.6086 104.837 14.4401ZM115.757 14.122C112.759 13.9041 109.404 13.8006 105.132 14.2082C105.266 13.8179 105.362 13.3864 105.386 12.9253C108.877 12.9775 112.359 13.3164 115.757 14.122H115.757ZM105.197 12.7278C103.158 12.7037 101.038 12.7788 98.8394 12.9527C99.8323 9.89203 102.59 11.7725 102.755 12.1394C102.808 12.2564 102.985 12.177 102.932 12.0594C102.695 11.5322 99.6638 9.61818 98.6299 12.9698C97.4096 13.0695 96.1652 13.1994 94.8969 13.3598C95.6544 6.45927 105.223 6.92313 105.197 12.7278ZM94.6846 13.5822C94.6397 14.2937 94.7066 15.0513 94.919 15.8882C88.8761 17.2407 81.9644 19.3299 74.0011 22.2101C73.3691 20.9593 73.1916 19.7842 73.3019 18.4806C81.0267 16.0584 88.1705 14.4227 94.6851 13.5822H94.6846ZM61.4913 21.869C61.0469 23.0584 60.1345 24.0555 58.9248 24.361C57.6805 24.6753 56.0996 23.9283 54.6273 22.9452C57.2172 22.5845 59.5431 22.2196 61.4913 21.869ZM51.6725 20.9235C52.3528 21.4856 53.1978 22.1834 54.1045 22.8214C50.3392 23.3379 46.389 23.7961 42.6211 24.1762C40.8852 20.5872 44.2262 14.7668 51.6725 20.9235ZM56.3794 27.4077C56.236 27.3931 45.0941 28.7497 42.7166 24.3619C46.4867 23.9807 50.49 23.5167 54.3406 22.985C55.6123 23.8539 57.4811 24.926 58.9732 24.5498C60.2877 24.2178 61.2663 23.1186 61.7135 21.8289C66.8186 20.8996 65.9196 20.8553 71.9799 18.9015C72.1723 20.189 72.5959 21.4019 73.2281 22.4908C65.4984 25.3121 68.3486 24.6373 56.3793 27.4077H56.3794ZM121.575 21.1408C121.551 21.0222 119.31 20.8003 118.98 20.8003C115.12 20.8003 111.946 21.9763 109.527 22.792C108.681 23.0805 103.163 23.8043 99.3904 21.7857C105.706 18.491 114.689 16.4668 121.632 18.8668C121.705 19.6968 121.896 20.5152 122.164 21.2837C121.97 21.2318 121.773 21.1847 121.574 21.1408H121.575ZM125.002 25.5184C123.939 24.1399 123.193 23.415 122.477 21.5737C123.365 21.8368 124.211 22.1847 125.002 22.6123C125.793 22.1847 126.639 21.8368 127.527 21.5737C126.813 23.4073 126.081 24.1191 125.002 25.5184ZM140.475 22.792C140.382 22.7606 133.56 20.3181 131.006 20.8038C130.783 20.8137 128.458 20.9949 128.429 21.1407C128.23 21.1846 128.033 21.2318 127.838 21.2837C128.107 20.5154 128.297 19.6971 128.371 18.8673C135.398 16.4373 144.421 18.5557 150.613 21.7853C146.993 23.7228 141.537 23.1538 140.475 22.792H140.475ZM193.624 27.4077C181.884 24.6905 184.696 25.3819 176.776 22.4912C177.408 21.4023 177.832 20.1894 178.024 18.9018C184.089 20.8571 183.189 20.9004 188.29 21.8289C188.913 23.6259 190.369 24.6276 191.684 24.6276C192.917 24.6275 194.344 23.8857 195.663 22.9851C199.514 23.5169 203.517 23.9808 207.287 24.362C204.908 28.7517 193.839 27.3856 193.623 27.4077H193.624Z" fill="#DBC0AB"/>
<path d="M158.28 33.0769C153.722 34.2661 154.039 36.7755 154.201 36.8734C155.086 37.4063 157.75 36.8415 158.401 33.1881C158.413 33.1195 158.35 33.059 158.28 33.0769Z" fill="#DBC0AB"/>
<path d="M91.598 33.1876C92.3742 37.5429 95.8233 37.2603 95.8446 36.7946C95.9933 33.9459 91.5402 32.8542 91.598 33.1876Z" fill="#DBC0AB"/>
<path d="M158.792 35.7307C156.367 40.1736 157.055 43.1715 158.911 42.9895C161.645 42.8124 160.4 38.4897 158.792 35.7307Z" fill="#DBC0AB"/>
<path d="M91.2071 35.7307C88.9957 39.5245 88.8084 42.9958 91.2443 42.9971C93.0802 42.9968 93.4452 39.8247 91.2071 35.7307Z" fill="#DBC0AB"/>
<path d="M159.267 33.2408C160.037 37.5681 163.487 37.3418 163.513 36.8482C163.663 33.9852 159.21 32.9249 159.267 33.2408Z" fill="#DBC0AB"/>
<path d="M90.6171 33.1301C87.7888 33.8684 86.4007 35.1197 86.4916 36.8489C86.4996 37.0147 87.0203 37.0993 87.2704 37.0992C89.9614 37.0994 91.1072 33.0039 90.6171 33.1301Z" fill="#DBC0AB"/>
<path d="M234.201 26.2676C234.108 26.353 234.693 30.6857 237.557 30.7594C237.72 30.7594 238.089 29.9643 237.702 28.8967C236.965 26.8672 234.314 26.163 234.201 26.2676Z" fill="#DBC0AB"/>
<path d="M12.2949 28.8963C11.9092 29.9593 12.2766 30.7595 12.4374 30.7592C15.2371 30.7526 15.889 26.3535 15.7957 26.2672C15.7013 26.1799 13.0477 26.8234 12.2949 28.8963Z" fill="#DBC0AB"/>
<path d="M236.862 26.0535C240.963 28.7269 244.146 28.4372 244.108 26.5007C244.145 23.672 239.588 24.7382 236.862 26.0535Z" fill="#DBC0AB"/>
<path d="M13.1407 26.0535C9.08841 24.0967 5.86511 24.3136 5.89461 26.5005C5.85757 28.4243 9.0176 28.7397 13.1407 26.0535Z" fill="#DBC0AB"/>
<path d="M234.415 25.391C238.081 25.0299 238.886 22.4303 238.417 21.492C238.357 21.3716 235.886 20.7228 234.314 25.2624C234.29 25.331 234.348 25.3996 234.415 25.391Z" fill="#DBC0AB"/>
<path d="M15.6876 25.2626C14.1493 20.8203 11.6702 21.3211 11.5842 21.4924C11.4 21.8604 11.3971 22.5628 11.8052 23.3024C12.8197 25.1402 15.8284 25.6719 15.6876 25.2626Z" fill="#DBC0AB"/>
</svg>
